<?xml version="1.0" encoding="UTF-8"?>
<svg width="45px" height="45px" viewBox="0 0 45 45" version="1.1" xmlns="http://www.w3.org/2000/svg" xmlns:xlink="http://www.w3.org/1999/xlink">
    <!-- Generator: Sketch 49 (51002) - http://www.bohemiancoding.com/sketch -->
    <title>man-user</title>
    <desc>Created with Sketch.</desc>
    <defs>
        <circle id="path-1" cx="22.5" cy="22.5" r="22.5"></circle>
    </defs>
    <g id="Page-1" stroke="none" stroke-width="1" fill="none" fill-rule="evenodd">
        <g id="Desktop-HD-Copy-17" transform="translate(-1272.000000, -25.000000)">
            <g id="man-user" transform="translate(1272.000000, 25.000000)">
                <mask id="mask-2" fill="white">
                    <use xlink:href="#path-1"></use>
                </mask>
                <use id="Mask" fill="#f6993f" xlink:href="#path-1"></use>
                <g mask="url(#mask-2)" fill="#FFFFFF" fill-rule="nonzero" id="Shape">
                    <g transform="translate(7.000000, 7.000000)">
                        <path d="M15.0001135,19 C19.4181426,19 23,14.7467474 23,9.5000555 C23,4.25325256 21.8240236,0 15.0001135,0 C8.17620345,0 7,4.25325256 7,9.5000555 C7,14.7467474 10.5818574,19 15.0001135,19 Z"></path>
                        <path d="M0.00346410162,34.5 C0.000464101615,33.5270717 -0.00253589838,34.2258786 0.00346410162,34.5 Z"></path>
                        <path d="M30,34.5 C30.0095,34.3493069 30.00325,33.454507 30,34.5 Z"></path>
                        <path d="M29.9832066,33.3082724 C29.8361235,24.2260827 28.6240683,21.6381516 19.3490397,20 C19.3490397,20 18.0434374,21.6281145 15.0003381,21.6281145 C11.9572388,21.6281145 10.6514111,20 10.6514111,20 C1.47759377,21.6202833 0.191827963,24.1698305 0.0227668911,33.0132242 C0.00890388314,33.7353477 0.00247956239,33.7732904 0,33.6894636 C0.000563536908,33.8465285 0.0012397812,34.1370545 0.0012397812,34.6436549 C0.0012397812,34.6436549 2.2094028,39 15.0003381,39 C27.791048,39 29.9994365,34.6436549 29.9994365,34.6436549 C29.9994365,34.3181644 29.9996619,34.0918321 30,33.9378556 C29.9975204,33.9896958 29.9925613,33.889214 29.9832066,33.3082724 Z"></path>
                    </g>
                </g>
            </g>
        </g>
    </g>
</svg>