<?xml version="1.0" encoding="iso-8859-1"?>
<!-- Generator: Adobe Illustrator 19.0.0, SVG Export Plug-In . SVG Version: 6.00 Build 0)  -->
<svg version="1.1" id="Capa_1" xmlns="http://www.w3.org/2000/svg" xmlns:xlink="http://www.w3.org/1999/xlink" x="0px" y="0px"
	 viewBox="0 0 498.036 498.036" style="enable-background:new 0 0 498.036 498.036;" xml:space="preserve">
<circle style="fill:#2EA2DB;" cx="249.018" cy="249.018" r="249.018"/>
<path style="fill:#E1E6E9;" d="M389.43,137.309V204.8c0,16.291,13.188,29.479,29.479,29.479l0,0
	c16.291,0,29.479-13.188,29.479-29.479v-67.491L389.43,137.309z"/>
<path style="fill:#193651;" d="M418.909,242.812c-20.945,0-37.236-17.067-37.236-37.236v-67.491c0-2.327,0.776-3.879,2.327-5.43
	c1.552-1.552,3.103-2.327,5.43-2.327l0,0h59.733c4.655,0,7.758,3.103,7.758,7.758v67.491
	C456.145,225.745,439.855,242.812,418.909,242.812z M397.188,145.067V204.8c0,12.412,10.085,21.721,21.721,21.721l0,0
	c12.412,0,21.721-10.085,21.721-21.721v-59.733L397.188,145.067z"/>
<path style="fill:#E1E6E9;" d="M79.903,59.733c-16.291,0-29.479,13.188-29.479,29.479v318.061h279.273V89.212
	c0-16.291,13.188-29.479,29.479-29.479C359.176,59.733,79.903,59.733,79.903,59.733z"/>
<path style="fill:#193651;" d="M329.697,415.03H50.424c-4.655,0-7.758-3.103-7.758-7.758V89.212
	c0-20.945,17.067-37.236,37.236-37.236h279.273c4.655,0,7.758,3.103,7.758,7.758s-3.103,7.758-7.758,7.758
	c-12.412,0-21.721,10.085-21.721,21.721v318.061C337.455,411.152,334.352,415.03,329.697,415.03z M58.182,399.515h263.758V89.212
	c0-8.533,2.327-15.515,6.982-21.721H79.903c-12.412,0-21.721,10.085-21.721,21.721V399.515z"/>
<rect x="81.455" y="90.764" style="fill:#FFFFFF;" width="217.212" height="285.479"/>
<path style="fill:#FDBF5E;" d="M389.43,205.576v-25.6v-42.667V89.212c0-16.291-13.188-29.479-29.479-29.479l0,0
	c-16.291,0-29.479,13.188-29.479,29.479v145.842h59.733h29.479C402.618,235.055,389.43,221.867,389.43,205.576z"/>
<path style="fill:#193651;" d="M418.909,242.812h-89.212c-4.655,0-7.758-3.103-7.758-7.758V89.212
	c0-20.945,17.067-37.236,37.236-37.236c20.945,0,37.236,17.067,37.236,37.236v116.364c0,12.412,10.085,21.721,21.721,21.721l0,0
	c4.655,0,7.758,3.103,7.758,7.758C426.667,239.709,423.564,242.812,418.909,242.812z M337.455,227.297h51.2
	c-4.655-6.206-6.982-13.964-6.982-21.721V89.212c0-12.412-10.085-21.721-21.721-21.721c-12.412,0-21.721,10.085-21.721,21.721
	v138.085H337.455z"/>
<rect x="178.424" y="344.436" style="fill:#FFFFFF;" width="67.491" height="113.261"/>
<path style="fill:#193651;" d="M245.915,465.455h-67.491c-4.655,0-7.758-3.103-7.758-7.758V344.436c0-4.655,3.103-7.758,7.758-7.758
	h67.491c4.655,0,7.758,3.103,7.758,7.758v113.261C253.673,462.352,249.794,465.455,245.915,465.455z M186.182,449.939h51.976
	v-97.745h-51.976L186.182,449.939L186.182,449.939z"/>
<circle style="fill:#4FBF9F;" cx="211.782" cy="321.939" r="62.836"/>
<path style="fill:#193651;" d="M211.782,392.533c-38.788,0-70.594-31.806-70.594-70.594s31.806-70.594,70.594-70.594
	s70.594,31.806,70.594,70.594S251.345,392.533,211.782,392.533z M211.782,266.861c-30.255,0-55.079,24.824-55.079,55.079
	c0,30.255,24.824,55.079,55.079,55.079s55.079-24.824,55.079-55.079C266.861,291.685,242.812,266.861,211.782,266.861z"/>
<circle style="fill:#FFFFFF;" cx="211.782" cy="321.939" r="37.236"/>
<g>
	<path style="fill:#193651;" d="M211.782,465.455c-4.655,0-7.758-3.103-7.758-7.758V415.03c0-4.655,3.103-7.758,7.758-7.758
		c4.655,0,7.758,3.103,7.758,7.758v42.667C219.539,462.352,216.436,465.455,211.782,465.455z"/>
	<path style="fill:#193651;" d="M259.103,166.012H121.018c-4.655,0-7.758-3.103-7.758-7.758c0-4.655,3.103-7.758,7.758-7.758
		h138.085c4.655,0,7.758,3.103,7.758,7.758C266.861,162.909,263.758,166.012,259.103,166.012z"/>
	<path style="fill:#193651;" d="M259.103,200.145H121.018c-4.655,0-7.758-3.103-7.758-7.758c0-4.655,3.103-7.758,7.758-7.758
		h138.085c4.655,0,7.758,3.103,7.758,7.758S263.758,200.145,259.103,200.145z"/>
	<path style="fill:#193651;" d="M190.061,235.055h-69.042c-4.655,0-7.758-3.103-7.758-7.758c0-4.655,3.103-7.758,7.758-7.758h69.042
		c4.655,0,7.758,3.103,7.758,7.758C197.818,231.176,194.715,235.055,190.061,235.055z"/>
</g>
<g>
	<rect x="113.261" y="117.139" style="fill:#193651;" width="15.515" height="13.188"/>
	<rect x="148.17" y="117.139" style="fill:#193651;" width="15.515" height="13.188"/>
	<rect x="183.079" y="117.139" style="fill:#193651;" width="15.515" height="13.188"/>
</g>
<g>
</g>
<g>
</g>
<g>
</g>
<g>
</g>
<g>
</g>
<g>
</g>
<g>
</g>
<g>
</g>
<g>
</g>
<g>
</g>
<g>
</g>
<g>
</g>
<g>
</g>
<g>
</g>
<g>
</g>
</svg>
